# xmcd
#
# Track frame offsets:
#	150
#	13753
#	24737
#	43069
#	57635
#	75571
#	86225
#	98598
#	115789
#	128726
#	143485
#	157200
#	173519
#	187510
#	205295
#	217468
#	229993
#	246383
#	257047
#
# Disc length: 3557 seconds
#
# Revision: 0
# Processed by: cddbd v1.5.2PL0 Copyright (c) Steve Scherf et al.
# Submitted via: EasyCDDAExtractor 2010.6.0.0
#
DISCID=0d0de313
DTITLE=Ron'ell Erasmus - U Laat My Lewe
DYEAR=1900
DGENRE=gospel
TTITLE0=U Laat My Lewe
TTITLE1=Nader Tot My
TTITLE2=God Is Die Lig
TTITLE3=Volg Ons U Na
TTITLE4='n Gebed Vir Mamma 
TTITLE5=Amen Jesus Amen
TTITLE6=Danklied
TTITLE7=Loof Die Heer
TTITLE8=Laat Heer U Vrede Deur My Vloei
TTITLE9=He Chose Me
TTITLE10=Die Wingerdstok
TTITLE11=Prys Die Heer
TTITLE12=Where We Never Grow Old
TTITLE13=Laat U Teenwoordigheid
TTITLE14=Drie Vrae
TTITLE15=Ere Aan God
TTITLE16=Vroue Van Die Bybel
TTITLE17=Ek Leef
TTITLE18=God Sal U Trou Behoed
EXTD=
EXTT0=
EXTT1=
EXTT2=
EXTT3=
EXTT4=
EXTT5=
EXTT6=
EXTT7=
EXTT8=
EXTT9=
EXTT10=
EXTT11=
EXTT12=
EXTT13=
EXTT14=
EXTT15=
EXTT16=
EXTT17=
EXTT18=
PLAYORDER=
